<svg width="41" height="20" viewBox="0 0 41 20" fill="none" xmlns="http://www.w3.org/2000/svg">
<g clip-path="url(#clip0_1_226)">
<path fill-rule="evenodd" clip-rule="evenodd" d="M10.4823 17.8723H19.5439L23.6749 2.42773H10.4823C6.218 2.42773 2.75328 5.88945 2.75328 10.15C2.75328 14.4106 6.218 17.8723 10.4823 17.8723Z" fill="white"/>
<path fill-rule="evenodd" clip-rule="evenodd" d="M30.7376 0.830078H10.4823C5.28517 0.830078 1.15416 4.95751 1.15416 10.1501C1.15416 15.3426 5.28517 19.4701 10.4823 19.4701H30.7376C35.9346 19.4701 40.0657 15.3426 40.0657 10.1501C40.0657 4.95751 35.8014 0.830078 30.7376 0.830078ZM2.75326 10.1501C2.75326 5.88951 6.21799 2.42779 10.4823 2.42779H23.6749L19.5438 17.8724H10.4823C6.21799 17.8724 2.75326 14.4106 2.75326 10.1501Z" fill="#0066FF"/>
<path d="M33.4027 6.15577C33.6693 6.42205 33.6693 6.95463 33.4027 7.22091L30.6043 10.1501L33.536 13.0792C33.8025 13.3455 33.8025 13.8781 33.536 14.1443C33.2695 14.4106 32.7364 14.4106 32.4699 14.1443L29.5382 11.2152L26.6066 14.1443C26.34 14.4106 25.807 14.4106 25.5405 14.1443C25.274 13.8781 25.274 13.3455 25.5405 13.0792L28.3389 10.1501L25.4072 7.22091C25.1407 6.95463 25.1407 6.42205 25.4072 6.15577C25.6737 5.88948 26.2068 5.88948 26.4733 6.15577L29.405 9.08491L32.3367 6.15577C32.6032 5.88948 33.1362 5.88948 33.4027 6.15577Z" fill="white"/>
<path d="M17.545 6.28895C17.8115 6.55523 17.9447 7.08781 17.6782 7.35409L12.0814 13.8781C11.9481 14.0112 11.8148 14.1444 11.6816 14.1444C11.4151 14.2775 11.0153 14.2775 10.7488 14.0112L7.81709 11.0821C7.55057 10.8158 7.55057 10.2832 7.81709 10.0169C8.08361 9.75066 8.61664 9.75066 8.88316 10.0169L11.2818 12.2804L16.3456 6.28895C16.6122 6.02266 17.1452 6.02266 17.545 6.28895Z" fill="#0066FF"/>
</g>
<defs>
<clipPath id="clip0_1_226">
<rect width="40" height="18.64" fill="white" transform="translate(0.609985 0.830078)"/>
</clipPath>
</defs>
</svg>
